<svg xmlns="http://www.w3.org/2000/svg" width="301.714" height="96" viewBox="0 0 301.714 96">
  <g id="App_store" data-name="App store" transform="translate(-357 -672)">
    <g id="Group_28318" data-name="Group 28318" transform="translate(357 672)">
      <rect id="Rectangle_2774" data-name="Rectangle 2774" width="301.714" height="96" rx="8"/>
      <g id="Group_28314" data-name="Group 28314" transform="translate(93.206 20.211)">
        <path id="Path_39517" data-name="Path 39517" d="M15,5H6.423L5,9.1H.468L8.213-12.466h5.03L20.988,9.1H16.421ZM13.829,1.543l-3.117-9.01L7.6,1.543ZM28.209-5.523a6.56,6.56,0,0,1,2.3-1.959,6.967,6.967,0,0,1,3.348-.787,7.476,7.476,0,0,1,3.965,1.08,7.6,7.6,0,0,1,2.808,3.07A9.87,9.87,0,0,1,41.662.494a10.058,10.058,0,0,1-1.034,4.644A7.774,7.774,0,0,1,37.821,8.27a7.319,7.319,0,0,1-3.965,1.111,6.9,6.9,0,0,1-3.317-.771,7.116,7.116,0,0,1-2.33-1.944V17.249h-4.32V-7.992h4.32ZM37.25.494a5.365,5.365,0,0,0-.633-2.669,4.38,4.38,0,0,0-1.666-1.713,4.459,4.459,0,0,0-2.237-.586,4.315,4.315,0,0,0-2.206.6,4.466,4.466,0,0,0-1.666,1.743A5.453,5.453,0,0,0,28.209.555a5.453,5.453,0,0,0,.633,2.685,4.466,4.466,0,0,0,1.666,1.743,4.315,4.315,0,0,0,2.206.6,4.287,4.287,0,0,0,2.237-.617,4.581,4.581,0,0,0,1.666-1.759A5.519,5.519,0,0,0,37.25.494ZM49.13-5.523a6.56,6.56,0,0,1,2.3-1.959,6.967,6.967,0,0,1,3.348-.787,7.476,7.476,0,0,1,3.965,1.08,7.6,7.6,0,0,1,2.808,3.07A9.87,9.87,0,0,1,62.583.494,10.058,10.058,0,0,1,61.55,5.138,7.774,7.774,0,0,1,58.742,8.27a7.319,7.319,0,0,1-3.965,1.111,6.9,6.9,0,0,1-3.317-.771,7.116,7.116,0,0,1-2.33-1.944V17.249H44.81V-7.992h4.32ZM58.171.494a5.365,5.365,0,0,0-.633-2.669,4.38,4.38,0,0,0-1.666-1.713,4.459,4.459,0,0,0-2.237-.586,4.315,4.315,0,0,0-2.206.6,4.466,4.466,0,0,0-1.666,1.743A5.453,5.453,0,0,0,49.13.555a5.452,5.452,0,0,0,.633,2.685,4.466,4.466,0,0,0,1.666,1.743,4.315,4.315,0,0,0,2.206.6,4.287,4.287,0,0,0,2.237-.617,4.581,4.581,0,0,0,1.666-1.759A5.519,5.519,0,0,0,58.171.494ZM80.511,9.319a10.23,10.23,0,0,1-4.058-.771A6.662,6.662,0,0,1,73.6,6.326,5.85,5.85,0,0,1,72.519,2.9h4.629A2.993,2.993,0,0,0,78.089,5a3.334,3.334,0,0,0,2.33.771,3.584,3.584,0,0,0,2.376-.725,2.358,2.358,0,0,0,.864-1.9,2.193,2.193,0,0,0-.586-1.574A4.108,4.108,0,0,0,81.607.6a24.256,24.256,0,0,0-2.422-.787A25.943,25.943,0,0,1,75.775-1.4a5.972,5.972,0,0,1-2.253-1.821,5.188,5.188,0,0,1-.941-3.255,5.821,5.821,0,0,1,.957-3.333,6.084,6.084,0,0,1,2.685-2.175,9.767,9.767,0,0,1,3.95-.756,8.569,8.569,0,0,1,5.415,1.62,6.006,6.006,0,0,1,2.3,4.521H83.134a2.468,2.468,0,0,0-.941-1.836,3.546,3.546,0,0,0-2.33-.725,3,3,0,0,0-2.021.648,2.343,2.343,0,0,0-.756,1.882A1.946,1.946,0,0,0,77.657-5.2a4.353,4.353,0,0,0,1.419.926q.849.355,2.391.818a25.124,25.124,0,0,1,3.425,1.234A6.151,6.151,0,0,1,87.177-.37a5.143,5.143,0,0,1,.957,3.24,6.094,6.094,0,0,1-.895,3.209,6.317,6.317,0,0,1-2.623,2.361A8.946,8.946,0,0,1,80.511,9.319ZM96.9-4.443v8.27a1.634,1.634,0,0,0,.417,1.25,2.047,2.047,0,0,0,1.4.386h2.006V9.1H98.007q-5.462,0-5.462-5.307V-4.443H90.509V-7.992h2.037v-4.227H96.9v4.227h3.826v3.549ZM111.43,9.381a9,9,0,0,1-4.443-1.1,7.888,7.888,0,0,1-3.1-3.1A9.292,9.292,0,0,1,102.759.555a9.1,9.1,0,0,1,1.157-4.629,8.041,8.041,0,0,1,3.163-3.1,9.685,9.685,0,0,1,8.949,0,8.041,8.041,0,0,1,3.163,3.1A9.1,9.1,0,0,1,120.348.555a8.909,8.909,0,0,1-1.188,4.629,8.227,8.227,0,0,1-3.209,3.1A9.332,9.332,0,0,1,111.43,9.381Zm0-3.765a4.494,4.494,0,0,0,2.206-.571,4.149,4.149,0,0,0,1.651-1.713A5.771,5.771,0,0,0,115.9.555a5.146,5.146,0,0,0-1.281-3.749,4.21,4.21,0,0,0-3.132-1.311,4.111,4.111,0,0,0-3.1,1.311,5.224,5.224,0,0,0-1.25,3.749A5.307,5.307,0,0,0,108.36,4.3,4.013,4.013,0,0,0,111.43,5.616ZM127.846-5.338a6.074,6.074,0,0,1,2.175-2.129,6.05,6.05,0,0,1,3.07-.771V-3.7H131.95a4.376,4.376,0,0,0-3.07.957A4.41,4.41,0,0,0,127.846.586V9.1h-4.32V-7.992h4.32ZM151.884.185a10.194,10.194,0,0,1-.123,1.666h-12.5a4.25,4.25,0,0,0,1.3,2.9A4,4,0,0,0,143.367,5.8a3.528,3.528,0,0,0,3.425-2.067h4.659a7.787,7.787,0,0,1-2.839,4.058,8.288,8.288,0,0,1-5.153,1.589,8.917,8.917,0,0,1-4.428-1.1,7.71,7.71,0,0,1-3.055-3.1,9.5,9.5,0,0,1-1.1-4.629,9.679,9.679,0,0,1,1.08-4.659,7.536,7.536,0,0,1,3.024-3.086,9.059,9.059,0,0,1,4.474-1.08,8.987,8.987,0,0,1,4.366,1.049,7.384,7.384,0,0,1,2.993,2.978A9.011,9.011,0,0,1,151.884.185ZM147.41-1.049a3.426,3.426,0,0,0-1.2-2.669,4.263,4.263,0,0,0-2.87-1,3.921,3.921,0,0,0-2.7.972,4.274,4.274,0,0,0-1.342,2.7Z" transform="translate(-0.3 37.251)" fill="#fff"/>
        <path id="Path_39518" data-name="Path 39518" d="M9.644-3.457A3.15,3.15,0,0,0,8.359-4.8a3.873,3.873,0,0,0-1.9-.454,4.159,4.159,0,0,0-2.109.531A3.724,3.724,0,0,0,2.9-3.217,4.724,4.724,0,0,0,2.376-.954,4.775,4.775,0,0,0,2.9,1.317,3.711,3.711,0,0,0,4.347,2.834a4.159,4.159,0,0,0,2.109.531,3.731,3.731,0,0,0,2.589-.891A3.875,3.875,0,0,0,10.261.057H5.787V-1.5h6.566V.023a5.865,5.865,0,0,1-.986,2.554,5.864,5.864,0,0,1-2.074,1.86,5.843,5.843,0,0,1-2.837.694,6.158,6.158,0,0,1-3.069-.78,5.816,5.816,0,0,1-2.2-2.169A6.085,6.085,0,0,1,.37-.954a6.085,6.085,0,0,1,.814-3.137A5.8,5.8,0,0,1,3.4-6.26a6.172,6.172,0,0,1,3.06-.78,6.216,6.216,0,0,1,3.386.934,5.32,5.32,0,0,1,2.151,2.649Zm6.583-1.851v3.5h4.114V-.217H16.227V3.434h4.629V5.029H14.273V-6.9h6.583v1.594ZM30.953-6.886v1.594H27.781V5.029H25.827V-5.291H22.639V-6.886Zm8.383,0V5.029H37.381V-6.886Zm10.269,0v1.594H46.433V5.029H44.479V-5.291H41.29V-6.886ZM61.467,5.149a6.172,6.172,0,0,1-3.06-.78A5.78,5.78,0,0,1,56.2,2.191a6.131,6.131,0,0,1-.814-3.146A6.085,6.085,0,0,1,56.2-4.091,5.8,5.8,0,0,1,58.407-6.26a6.172,6.172,0,0,1,3.06-.78,6.205,6.205,0,0,1,3.077.78,5.736,5.736,0,0,1,2.2,2.169,6.135,6.135,0,0,1,.806,3.137,6.182,6.182,0,0,1-.806,3.146,5.719,5.719,0,0,1-2.2,2.177A6.205,6.205,0,0,1,61.467,5.149Zm0-1.7a4.107,4.107,0,0,0,2.109-.54,3.744,3.744,0,0,0,1.449-1.543,4.954,4.954,0,0,0,.523-2.323,4.9,4.9,0,0,0-.523-2.314,3.7,3.7,0,0,0-1.449-1.526,4.159,4.159,0,0,0-2.109-.531,4.159,4.159,0,0,0-2.109.531A3.7,3.7,0,0,0,57.91-3.269a4.9,4.9,0,0,0-.523,2.314,4.954,4.954,0,0,0,.523,2.323,3.744,3.744,0,0,0,1.449,1.543A4.107,4.107,0,0,0,61.467,3.451ZM79.261,5.029H77.307l-5.88-8.9v8.9H69.473V-6.9h1.954l5.88,8.88V-6.9h1.954Z" transform="translate(-0.37 7.04)" fill="#fff"/>
      </g>
      <g id="apple" transform="translate(23.999 20.21)">
        <path id="Path_36760" data-name="Path 36760" d="M38.048,16.037C37.981,9.1,43.716,5.756,43.974,5.6A12.809,12.809,0,0,0,33.941.155c-4.271-.429-8.335,2.518-10.5,2.518S17.927.221,14.388.29A13.418,13.418,0,0,0,3.036,7.164C-1.8,15.56,1.8,27.994,6.515,34.8c2.3,3.326,5.052,7.078,8.659,6.942,3.479-.136,4.789-2.244,8.986-2.244s5.379,2.244,9.059,2.175c3.734-.067,6.108-3.4,8.395-6.736a30.19,30.19,0,0,0,3.8-7.807,12.108,12.108,0,0,1-7.363-11.1h0Z" transform="translate(-0.741 13.107)" fill="#fff" fill-rule="evenodd"/>
        <path id="Path_36761" data-name="Path 36761" d="M8.312,8.762A12.083,12.083,0,0,0,11.163,0,12.293,12.293,0,0,0,3.082,4.158C1.305,6.213-.249,9.495.172,12.642c3.078.239,6.222-1.562,8.14-3.88Z" transform="translate(22.093)" fill="#fff" fill-rule="evenodd"/>
      </g>
    </g>
  </g>
</svg>
