<svg id="Email" xmlns="http://www.w3.org/2000/svg" width="26" height="26" viewBox="0 0 26 26">
  <path id="Path_39417" data-name="Path 39417" d="M24.291,6A1.444,1.444,0,0,0,24,6H3.773a1.444,1.444,0,0,0-.383.058L13.826,16.448Z" transform="translate(-0.942 -1.664)" fill="#ff1b73"/>
  <path id="Path_39418" data-name="Path 39418" d="M24.954,7.39,14.439,17.862a1.444,1.444,0,0,1-2.037,0L1.981,7.469a1.444,1.444,0,0,0-.051.361V22.275a1.444,1.444,0,0,0,1.444,1.444H23.6a1.444,1.444,0,0,0,1.444-1.444V7.831A1.444,1.444,0,0,0,24.954,7.39ZM4.364,22.275h-1V21.242l5.251-5.207,1.018,1.018Zm19.218,0H22.571l-5.265-5.222,1.018-1.018,5.251,5.207Z" transform="translate(-0.536 -2.053)" fill="#ff1b73"/>
  <rect id="Rectangle_1060" data-name="Rectangle 1060" width="26" height="26" fill="rgba(0,0,0,0)"/>
</svg>
