<svg id="Facebook" xmlns="http://www.w3.org/2000/svg" width="46" height="46" viewBox="0 0 46 46">
  <g id="facebook_3_" data-name="facebook (3)" transform="translate(16.612 12.778)">
    <path id="Path_39374" data-name="Path 39374" d="M64.777,36.3H60.468c-4.321.014-4.885,3.031-4.887,5.668a.329.329,0,0,0-.009.076V43.9H52.614a.324.324,0,0,0-.324.324V48.79a.324.324,0,0,0,.324.324h2.957V59.133a.324.324,0,0,0,.324.324h4.316a.324.324,0,0,0,.324-.324V49.115h4.241a.324.324,0,0,0,.324-.324V44.225a.324.324,0,0,0-.324-.324H60.211V41.447h4.565a.324.324,0,0,0,.324-.324V36.628A.324.324,0,0,0,64.777,36.3Z" transform="translate(-52.29 -36.304)" fill="#fffcfc"/>
  </g>
  <g id="Group_25981" data-name="Group 25981" transform="translate(0 0)">
    <g id="Path_15" data-name="Path 15" transform="translate(0 0)" fill="none">
      <path d="M23,0A23,23,0,1,1,0,23,23,23,0,0,1,23,0Z" stroke="none"/>
      <path d="M 23.00000190734863 1.000003814697266 C 20.02958106994629 1.000003814697266 17.1485424041748 1.58154296875 14.43691253662109 2.728462219238281 C 11.81729125976563 3.836471557617188 9.464412689208984 5.422893524169922 7.443653106689453 7.443653106689453 C 5.422893524169922 9.464412689208984 3.836471557617188 11.81729125976563 2.728462219238281 14.43691253662109 C 1.58154296875 17.1485424041748 1.000003814697266 20.02958106994629 1.000003814697266 23.00000190734863 C 1.000003814697266 25.97042274475098 1.58154296875 28.85146141052246 2.728462219238281 31.56309127807617 C 3.836471557617188 34.18271255493164 5.422893524169922 36.53559112548828 7.443653106689453 38.55635070800781 C 9.464412689208984 40.57711029052734 11.81729125976563 42.16353225708008 14.43691253662109 43.27154159545898 C 17.1485424041748 44.41846084594727 20.02958106994629 45 23.00000190734863 45 C 25.97042274475098 45 28.85146141052246 44.41846084594727 31.56309127807617 43.27154159545898 C 34.18271255493164 42.16353225708008 36.53559112548828 40.57711029052734 38.55635070800781 38.55635070800781 C 40.57711029052734 36.53559112548828 42.16353225708008 34.18271255493164 43.27154159545898 31.56309127807617 C 44.41846084594727 28.85146141052246 45 25.97042274475098 45 23.00000190734863 C 45 20.02958106994629 44.41846084594727 17.1485424041748 43.27154159545898 14.43691253662109 C 42.16353225708008 11.81729125976563 40.57711029052734 9.464412689208984 38.55635070800781 7.443653106689453 C 36.53559112548828 5.422893524169922 34.18271255493164 3.836471557617188 31.56309127807617 2.728462219238281 C 28.85146141052246 1.58154296875 25.97042274475098 1.000003814697266 23.00000190734863 1.000003814697266 M 23.00000190734863 3.814697265625e-06 C 35.70255279541016 3.814697265625e-06 46 10.29745101928711 46 23.00000190734863 C 46 35.70255279541016 35.70255279541016 46 23.00000190734863 46 C 10.29745101928711 46 3.814697265625e-06 35.70255279541016 3.814697265625e-06 23.00000190734863 C 3.814697265625e-06 10.29745101928711 10.29745101928711 3.814697265625e-06 23.00000190734863 3.814697265625e-06 Z" stroke="none" fill="#fff"/>
    </g>
  </g>
</svg>
