<svg xmlns="http://www.w3.org/2000/svg" width="301.714" height="96" viewBox="0 0 301.714 96">
  <g id="Google_play" data-name="Google play" transform="translate(-147 -672)">
    <g id="Group_28317" data-name="Group 28317" transform="translate(147 672)">
      <rect id="Rectangle_2774" data-name="Rectangle 2774" width="301.714" height="96" rx="8"/>
      <g id="Google_play_1_" data-name="Google play (1)" transform="translate(24 20.211)">
        <path id="Path_36756" data-name="Path 36756" d="M28.5,24.967,1.964,51.5A6.29,6.29,0,0,1,.01,46.872V5.256A6.375,6.375,0,0,1,2.033.56Z" transform="translate(-0.01 1.369)" fill="#2196f3"/>
        <path id="Path_36757" data-name="Path 36757" d="M31.253,15.794a6.506,6.506,0,0,1-3.462,5.725L20.249,25.7l-9.358-8.639L8.32,14.7,18.227,4.79l9.564,5.279A6.506,6.506,0,0,1,31.253,15.794Z" transform="translate(20.167 11.639)" fill="#ffc107"/>
        <path id="Path_36758" data-name="Path 36758" d="M27.064,26.334.6,1.926A6.825,6.825,0,0,1,1.834,1,6.9,6.9,0,0,1,8.827.9L36.971,16.427Z" transform="translate(1.423 0.003)" fill="#4caf50"/>
        <path id="Path_36759" data-name="Path 36759" d="M39.042,18.684,8.876,35.31a6.828,6.828,0,0,1-3.428.891,6.679,6.679,0,0,1-3.565-.994,6.239,6.239,0,0,1-1.3-.994L27.113,7.68l2.571,2.365Z" transform="translate(1.374 18.656)" fill="#f44336"/>
      </g>
      <g id="Group_28314" data-name="Group 28314" transform="translate(93.206 20.21)">
        <path id="Path_39515" data-name="Path 39515" d="M16.676-5.544a5.057,5.057,0,0,0-2.037-2.067,6.2,6.2,0,0,0-3.024-.71,6.611,6.611,0,0,0-3.394.864A5.967,5.967,0,0,0,5.907-4.989a7.922,7.922,0,0,0-.833,3.7,7.941,7.941,0,0,0,.849,3.765A6.007,6.007,0,0,0,8.283,4.947a6.967,6.967,0,0,0,3.518.864A6.1,6.1,0,0,0,15.843,4.5,6.259,6.259,0,0,0,17.91.843H10.5v-3.3H22.168V1.306a10.118,10.118,0,0,1-1.851,4.166,10.453,10.453,0,0,1-3.657,3.07A10.751,10.751,0,0,1,11.646,9.7,11.353,11.353,0,0,1,6.015,8.3a10.215,10.215,0,0,1-3.95-3.9A11.2,11.2,0,0,1,.63-1.286,11.282,11.282,0,0,1,2.065-6.979,10.185,10.185,0,0,1,6.015-10.9a11.292,11.292,0,0,1,5.6-1.4,11.207,11.207,0,0,1,6.326,1.774,9.06,9.06,0,0,1,3.7,4.983ZM32.968,9.792a9,9,0,0,1-4.443-1.1,7.888,7.888,0,0,1-3.1-3.1A9.292,9.292,0,0,1,24.3.967a9.1,9.1,0,0,1,1.157-4.629,8.041,8.041,0,0,1,3.163-3.1,9.685,9.685,0,0,1,8.949,0,8.041,8.041,0,0,1,3.163,3.1A9.1,9.1,0,0,1,41.886.967,8.909,8.909,0,0,1,40.7,5.6a8.227,8.227,0,0,1-3.209,3.1A9.332,9.332,0,0,1,32.968,9.792Zm0-3.765a4.494,4.494,0,0,0,2.206-.571,4.149,4.149,0,0,0,1.651-1.713A5.771,5.771,0,0,0,37.443.967a5.146,5.146,0,0,0-1.281-3.749A4.21,4.21,0,0,0,33.03-4.094a4.11,4.11,0,0,0-3.1,1.311A5.224,5.224,0,0,0,28.679.967,5.307,5.307,0,0,0,29.9,4.716,4.013,4.013,0,0,0,32.968,6.027ZM52.655,9.792a9,9,0,0,1-4.443-1.1,7.888,7.888,0,0,1-3.1-3.1A9.292,9.292,0,0,1,43.984.967a9.1,9.1,0,0,1,1.157-4.629,8.041,8.041,0,0,1,3.163-3.1,9.685,9.685,0,0,1,8.949,0,8.041,8.041,0,0,1,3.163,3.1A9.1,9.1,0,0,1,61.573.967,8.909,8.909,0,0,1,60.385,5.6a8.227,8.227,0,0,1-3.209,3.1A9.332,9.332,0,0,1,52.655,9.792Zm0-3.765a4.494,4.494,0,0,0,2.206-.571,4.149,4.149,0,0,0,1.651-1.713A5.771,5.771,0,0,0,57.129.967a5.146,5.146,0,0,0-1.281-3.749,4.21,4.21,0,0,0-3.132-1.311,4.11,4.11,0,0,0-3.1,1.311A5.224,5.224,0,0,0,48.366.967a5.307,5.307,0,0,0,1.219,3.749A4.013,4.013,0,0,0,52.655,6.027ZM71.447-7.858a7.175,7.175,0,0,1,3.363.756,6.193,6.193,0,0,1,2.283,1.959V-7.581h4.351V9.638a9.171,9.171,0,0,1-.957,4.243,7.1,7.1,0,0,1-2.87,2.962,9.173,9.173,0,0,1-4.629,1.1,9.887,9.887,0,0,1-5.971-1.7,6.291,6.291,0,0,1-2.638-4.629H68.67a3.194,3.194,0,0,0,1.466,1.867,5.106,5.106,0,0,0,2.731.694,4.226,4.226,0,0,0,3.055-1.126,4.523,4.523,0,0,0,1.173-3.41V6.984A6.563,6.563,0,0,1,74.8,8.99a6.859,6.859,0,0,1-3.348.8A7.342,7.342,0,0,1,67.5,8.681a7.736,7.736,0,0,1-2.823-3.132A10.058,10.058,0,0,1,63.64.905a9.894,9.894,0,0,1,1.034-4.6,7.577,7.577,0,0,1,2.808-3.086A7.476,7.476,0,0,1,71.447-7.858ZM77.094.967a5.541,5.541,0,0,0-.617-2.7,4.351,4.351,0,0,0-1.666-1.728,4.454,4.454,0,0,0-2.253-.6,4.375,4.375,0,0,0-2.222.586,4.415,4.415,0,0,0-1.651,1.713A5.365,5.365,0,0,0,68.053.905a5.542,5.542,0,0,0,.633,2.7,4.554,4.554,0,0,0,1.666,1.774A4.233,4.233,0,0,0,72.558,6a4.454,4.454,0,0,0,2.253-.6,4.351,4.351,0,0,0,1.666-1.728A5.541,5.541,0,0,0,77.094.967Zm12.9-14.287V9.514h-4.32V-13.32ZM110.142.6a10.2,10.2,0,0,1-.123,1.666h-12.5a4.25,4.25,0,0,0,1.3,2.9,4,4,0,0,0,2.808,1.049,3.528,3.528,0,0,0,3.425-2.067h4.659A7.787,7.787,0,0,1,106.871,8.2a8.288,8.288,0,0,1-5.153,1.589A8.917,8.917,0,0,1,97.29,8.7a7.71,7.71,0,0,1-3.055-3.1A9.5,9.5,0,0,1,93.14.967a9.679,9.679,0,0,1,1.08-4.659,7.536,7.536,0,0,1,3.024-3.086,9.059,9.059,0,0,1,4.474-1.08,8.987,8.987,0,0,1,4.366,1.049,7.384,7.384,0,0,1,2.993,2.978A9.011,9.011,0,0,1,110.142.6ZM105.668-.638a3.426,3.426,0,0,0-1.2-2.669,4.263,4.263,0,0,0-2.87-1,3.921,3.921,0,0,0-2.7.972,4.274,4.274,0,0,0-1.342,2.7ZM136.34-5.359a6.707,6.707,0,0,1-.818,3.24A6.006,6.006,0,0,1,132.961.319a9.316,9.316,0,0,1-4.4.926h-3.61v8.27h-4.32V-12.024h7.93a9.583,9.583,0,0,1,4.258.864,6.019,6.019,0,0,1,2.638,2.376A6.686,6.686,0,0,1,136.34-5.359Zm-7.961,3.117a3.744,3.744,0,0,0,2.654-.818,3.013,3.013,0,0,0,.864-2.3q0-3.147-3.518-3.147h-3.425v6.264ZM143.715-13.32V9.514h-4.32V-13.32ZM146.862.905a9.894,9.894,0,0,1,1.034-4.6A7.577,7.577,0,0,1,150.7-6.778a7.476,7.476,0,0,1,3.965-1.08,6.965,6.965,0,0,1,3.348.771,6.793,6.793,0,0,1,2.3,1.944V-7.581h4.351V9.514h-4.351v-2.5a6.426,6.426,0,0,1-2.3,1.99,7.034,7.034,0,0,1-3.379.787A7.265,7.265,0,0,1,150.7,8.681,7.775,7.775,0,0,1,147.9,5.549,10.058,10.058,0,0,1,146.862.905Zm13.454.062a5.541,5.541,0,0,0-.617-2.7,4.351,4.351,0,0,0-1.666-1.728,4.453,4.453,0,0,0-2.253-.6,4.375,4.375,0,0,0-2.222.586,4.415,4.415,0,0,0-1.651,1.713,5.365,5.365,0,0,0-.633,2.669,5.541,5.541,0,0,0,.633,2.7,4.554,4.554,0,0,0,1.666,1.774A4.233,4.233,0,0,0,155.78,6a4.453,4.453,0,0,0,2.253-.6A4.351,4.351,0,0,0,159.7,3.667,5.541,5.541,0,0,0,160.316.967Zm24.933-8.547L174.664,17.6h-4.6l3.7-8.517-6.85-16.663h4.845l4.413,11.942,4.474-11.942Z" transform="translate(-0.184 36.84)" fill="#fff"/>
        <path id="Path_39516" data-name="Path 39516" d="M9.644-3.457A3.15,3.15,0,0,0,8.359-4.8a3.873,3.873,0,0,0-1.9-.454,4.159,4.159,0,0,0-2.109.531A3.724,3.724,0,0,0,2.9-3.217,4.724,4.724,0,0,0,2.376-.954,4.775,4.775,0,0,0,2.9,1.317,3.711,3.711,0,0,0,4.347,2.834a4.159,4.159,0,0,0,2.109.531,3.731,3.731,0,0,0,2.589-.891A3.875,3.875,0,0,0,10.261.057H5.787V-1.5h6.566V.023a5.865,5.865,0,0,1-.986,2.554,5.864,5.864,0,0,1-2.074,1.86,5.843,5.843,0,0,1-2.837.694,6.158,6.158,0,0,1-3.069-.78,5.816,5.816,0,0,1-2.2-2.169A6.085,6.085,0,0,1,.37-.954a6.085,6.085,0,0,1,.814-3.137A5.8,5.8,0,0,1,3.4-6.26a6.172,6.172,0,0,1,3.06-.78,6.216,6.216,0,0,1,3.386.934,5.32,5.32,0,0,1,2.151,2.649Zm6.583-1.851v3.5h4.114V-.217H16.227V3.434h4.629V5.029H14.273V-6.9h6.583v1.594ZM30.953-6.886v1.594H27.781V5.029H25.827V-5.291H22.639V-6.886Zm8.383,0V5.029H37.381V-6.886Zm10.269,0v1.594H46.433V5.029H44.479V-5.291H41.29V-6.886ZM61.467,5.149a6.172,6.172,0,0,1-3.06-.78A5.78,5.78,0,0,1,56.2,2.191a6.131,6.131,0,0,1-.814-3.146A6.085,6.085,0,0,1,56.2-4.091,5.8,5.8,0,0,1,58.407-6.26a6.172,6.172,0,0,1,3.06-.78,6.205,6.205,0,0,1,3.077.78,5.736,5.736,0,0,1,2.2,2.169,6.135,6.135,0,0,1,.806,3.137,6.182,6.182,0,0,1-.806,3.146,5.719,5.719,0,0,1-2.2,2.177A6.205,6.205,0,0,1,61.467,5.149Zm0-1.7a4.107,4.107,0,0,0,2.109-.54,3.744,3.744,0,0,0,1.449-1.543,4.954,4.954,0,0,0,.523-2.323,4.9,4.9,0,0,0-.523-2.314,3.7,3.7,0,0,0-1.449-1.526,4.159,4.159,0,0,0-2.109-.531,4.159,4.159,0,0,0-2.109.531A3.7,3.7,0,0,0,57.91-3.269a4.9,4.9,0,0,0-.523,2.314,4.954,4.954,0,0,0,.523,2.323,3.744,3.744,0,0,0,1.449,1.543A4.107,4.107,0,0,0,61.467,3.451ZM79.261,5.029H77.307l-5.88-8.9v8.9H69.473V-6.9h1.954l5.88,8.88V-6.9h1.954Z" transform="translate(-0.37 7.04)" fill="#fff"/>
      </g>
    </g>
  </g>
</svg>
