<svg id="Instagram" xmlns="http://www.w3.org/2000/svg" width="46" height="46" viewBox="0 0 46 46">
  <g id="Group_25981" data-name="Group 25981" transform="translate(0 0)">
    <g id="Path_15" data-name="Path 15" transform="translate(0 0)" fill="none">
      <path d="M23,0A23,23,0,1,1,0,23,23,23,0,0,1,23,0Z" stroke="none"/>
      <path d="M 23.00000190734863 1.000003814697266 C 20.02958106994629 1.000003814697266 17.1485424041748 1.58154296875 14.43691253662109 2.728462219238281 C 11.81729125976563 3.836471557617188 9.464412689208984 5.422893524169922 7.443653106689453 7.443653106689453 C 5.422893524169922 9.464412689208984 3.836471557617188 11.81729125976563 2.728462219238281 14.43691253662109 C 1.58154296875 17.1485424041748 1.000003814697266 20.02958106994629 1.000003814697266 23.00000190734863 C 1.000003814697266 25.97042274475098 1.58154296875 28.85146141052246 2.728462219238281 31.56309127807617 C 3.836471557617188 34.18271255493164 5.422893524169922 36.53559112548828 7.443653106689453 38.55635070800781 C 9.464412689208984 40.57711029052734 11.81729125976563 42.16353225708008 14.43691253662109 43.27154159545898 C 17.1485424041748 44.41846084594727 20.02958106994629 45 23.00000190734863 45 C 25.97042274475098 45 28.85146141052246 44.41846084594727 31.56309127807617 43.27154159545898 C 34.18271255493164 42.16353225708008 36.53559112548828 40.57711029052734 38.55635070800781 38.55635070800781 C 40.57711029052734 36.53559112548828 42.16353225708008 34.18271255493164 43.27154159545898 31.56309127807617 C 44.41846084594727 28.85146141052246 45 25.97042274475098 45 23.00000190734863 C 45 20.02958106994629 44.41846084594727 17.1485424041748 43.27154159545898 14.43691253662109 C 42.16353225708008 11.81729125976563 40.57711029052734 9.464412689208984 38.55635070800781 7.443653106689453 C 36.53559112548828 5.422893524169922 34.18271255493164 3.836471557617188 31.56309127807617 2.728462219238281 C 28.85146141052246 1.58154296875 25.97042274475098 1.000003814697266 23.00000190734863 1.000003814697266 M 23.00000190734863 3.814697265625e-06 C 35.70255279541016 3.814697265625e-06 46 10.29745101928711 46 23.00000190734863 C 46 35.70255279541016 35.70255279541016 46 23.00000190734863 46 C 10.29745101928711 46 3.814697265625e-06 35.70255279541016 3.814697265625e-06 23.00000190734863 C 3.814697265625e-06 10.29745101928711 10.29745101928711 3.814697265625e-06 23.00000190734863 3.814697265625e-06 Z" stroke="none" fill="#fff"/>
    </g>
  </g>
  <g id="Group_32682" data-name="Group 32682" transform="translate(12.778 12.778)">
    <path id="instagram_1_" data-name="instagram (1)" d="M9.04,3A6.046,6.046,0,0,0,3,9.04V17.4a6.046,6.046,0,0,0,6.04,6.04H17.4a6.046,6.046,0,0,0,6.04-6.04V9.04A6.046,6.046,0,0,0,17.4,3ZM18.8,6.717a.929.929,0,1,1-.929.929A.932.932,0,0,1,18.8,6.717ZM13.222,8.111a5.111,5.111,0,1,1-5.111,5.111A5.114,5.114,0,0,1,13.222,8.111Zm0,.929A4.182,4.182,0,1,0,17.4,13.222,4.188,4.188,0,0,0,13.222,9.04Z" transform="translate(-3 -3)" fill="#fffcfc"/>
  </g>
</svg>
