<svg id="Location" xmlns="http://www.w3.org/2000/svg" width="26" height="26" viewBox="0 0 26 26">
  <path id="Path_39419" data-name="Path 39419" d="M14.728,2A8.515,8.515,0,0,0,6.22,10.472c0,3.373,1.892,6.2,3.279,8.255l.253.376a71.942,71.942,0,0,0,4.434,5.778l.549.643.549-.643A72.093,72.093,0,0,0,19.718,19.1l.253-.383c1.379-2.058,3.272-4.875,3.272-8.248A8.515,8.515,0,0,0,14.728,2Zm0,12.278A4.738,4.738,0,1,1,19.466,9.54,4.738,4.738,0,0,1,14.728,14.278Z" transform="translate(-1.728 -0.556)" fill="#ff1b73"/>
  <circle id="Ellipse_429" data-name="Ellipse 429" cx="2.694" cy="2.694" r="2.694" transform="translate(10.306 6.291)" fill="#ff1b73"/>
  <rect id="Rectangle_1062" data-name="Rectangle 1062" width="26" height="26" fill="rgba(0,0,0,0)"/>
</svg>
