<svg xmlns="http://www.w3.org/2000/svg" width="362.751" height="62.54" viewBox="0 0 362.751 62.54">
  <g id="Logo" transform="translate(-136 -46)">
    <g id="Group_28321" data-name="Group 28321" transform="translate(216.07 45.008)">
      <g id="Group_539" data-name="Group 539" transform="translate(0.93 17.992)">
        <path id="Path_39471" data-name="Path 39471" d="M10.291-37H24.272c5.552,0,5.552-8.875,0-8.875H10.291a.493.493,0,0,1-.486-.486V-61.188c0-5.552-8.875-5.552-8.875,0v14.832a5.356,5.356,0,0,0,.081,1.175A9.018,9.018,0,0,0,3.645-39.71,9.889,9.889,0,0,0,10.291-37ZM39.915-65.362a10.041,10.041,0,0,0-1.175.081,8.879,8.879,0,0,0-5.43,2.675A9.569,9.569,0,0,0,30.554-56v9.645a9.569,9.569,0,0,0,2.756,6.606,8.669,8.669,0,0,0,5.43,2.675A5.356,5.356,0,0,0,39.915-37H50.006a5.356,5.356,0,0,0,1.175-.081,8.669,8.669,0,0,0,5.43-2.675,9.752,9.752,0,0,0,2.756-6.606V-56a9.752,9.752,0,0,0-2.756-6.606,8.879,8.879,0,0,0-5.43-2.675,10.041,10.041,0,0,0-1.175-.081Zm0,19.452a.45.45,0,0,1-.446-.446v-9.6a.5.5,0,0,1,.446-.527h10.05a.5.5,0,0,1,.486.527v9.6a.46.46,0,0,1-.486.446ZM71.241-37H85.222c5.552,0,5.552-8.875,0-8.875H71.241a.493.493,0,0,1-.486-.486V-61.188c0-5.552-8.875-5.552-8.875,0v14.832a5.356,5.356,0,0,0,.081,1.175,9.018,9.018,0,0,0,2.634,5.471A9.889,9.889,0,0,0,71.241-37ZM100.7-37h13.981c5.552,0,5.552-8.875,0-8.875H100.7a.493.493,0,0,1-.486-.486V-61.188c0-5.552-8.875-5.552-8.875,0v14.832a5.354,5.354,0,0,0,.081,1.175,9.018,9.018,0,0,0,2.634,5.471A9.889,9.889,0,0,0,100.7-37Zm19.7-19.249a9.409,9.409,0,0,0,9.28,9.4c2.107.041,7.781.041,9.969.041a.46.46,0,0,1,.324.122.421.421,0,0,1,0,.648.5.5,0,0,1-.324.162H125.3c-5.511,0-5.511,8.875,0,8.875h14.346a5.356,5.356,0,0,0,1.175-.081,9.393,9.393,0,0,0,8.186-9.078V-61.431c0-5.511-8.875-5.511-8.875,0v5.187a.5.5,0,0,1-.486.527H129.8a.522.522,0,0,1-.527-.567v-5.147c0-5.511-8.875-5.511-8.875,0Z" transform="translate(-0.93 65.565)" fill="#f7c703"/>
        <path id="Path_39470" data-name="Path 39470" d="M24.893-64.451H5.009c-5.452,0-5.452,8.78,0,8.78H10.1a.432.432,0,0,1,.441.481V-40.4c0,2.726,2.2,4.089,4.41,4.089s4.41-1.363,4.41-4.089V-55.19a.432.432,0,0,1,.441-.481h5.091C30.385-55.671,30.385-64.451,24.893-64.451Zm6.053,18.8a9.239,9.239,0,0,0,9.3,9.22h9.782a9.171,9.171,0,0,0,9.06-8.86V-55.471A8.878,8.878,0,0,0,56.363-61.8a9.089,9.089,0,0,0-5.332-2.606,5.3,5.3,0,0,0-1.163-.08H35.757c-5.452,0-5.452,8.739,0,8.739H49.869a.365.365,0,0,1,.321.16.417.417,0,0,1,0,.641.455.455,0,0,1-.321.12h0c-2.085,0-7.737,0-9.782.04A9.188,9.188,0,0,0,30.947-45.649Zm9.261.481a.467.467,0,0,1-.521-.441.473.473,0,0,1,.521-.481h9.661a.455.455,0,0,1,.321.12.417.417,0,0,1,0,.641.5.5,0,0,1-.321.16H40.207ZM70.354-60.442c0-5.492-8.78-5.492-8.78,0v19.964c0,4.049,5.172,5.372,7.7,2.806l6.374-6.494,6.535,6.535c3.849,3.849,10.062-2.365,6.214-6.214L81.82-50.46l6.535-6.655c3.889-3.889-2.325-10.1-6.214-6.214L70.354-51.261ZM119.7-55.31a9.3,9.3,0,0,0-9.341-9.22h-9.822a9.255,9.255,0,0,0-9.06,8.86l.04,10.223a8.9,8.9,0,0,0,2.686,6.334,9.2,9.2,0,0,0,5.332,2.606,5.484,5.484,0,0,0,1.163.08h14.192c5.412,0,5.412-8.739,0-8.739H100.7a.414.414,0,0,1-.321-.16.487.487,0,0,1,0-.641.533.533,0,0,1,.321-.12h0c2.125,0,7.737,0,9.862-.04A9.249,9.249,0,0,0,119.7-55.31Zm-9.261-.481a.454.454,0,0,1,.481.441c.04.321-.241.481-.521.481h-9.7a.533.533,0,0,1-.321-.12.487.487,0,0,1,0-.641c.12-.08.2-.16.321-.16h9.742Z" transform="translate(162.046 64.563)" fill="#f7c703"/>
      </g>
    </g>
    <g id="Group_28322" data-name="Group 28322" transform="translate(136 46)">
      <g id="Group_554" data-name="Group 554" transform="translate(0)">
        <g id="Group_551" data-name="Group 551" transform="translate(0)">
          <g id="Group_547" data-name="Group 547">
            <g id="Group_548" data-name="Group 548">
              <circle id="Ellipse_22" data-name="Ellipse 22" cx="31.27" cy="31.27" r="31.27" fill="#f7c703"/>
            </g>
          </g>
        </g>
      </g>
      <g id="Group_560" data-name="Group 560" transform="translate(15.807 17.068)">
        <g id="Group_561" data-name="Group 561" transform="translate(0)">
          <g id="Group_565" data-name="Group 565">
            <g id="noun_Movie_32637">
              <path id="Path_39457" data-name="Path 39457" d="M31.292,81.645H12.024A2.964,2.964,0,0,0,9.059,84.61h25.2A2.965,2.965,0,0,0,31.292,81.645Z" transform="translate(-6.342 -52.989)" fill="#121312"/>
              <path id="Path_39458" data-name="Path 39458" d="M53.021,61.04a3.088,3.088,0,1,1,3.088-3.089A3.091,3.091,0,0,1,53.021,61.04Zm0-5.188a2.1,2.1,0,1,0,2.1,2.1A2.1,2.1,0,0,0,53.021,55.852Z" transform="translate(-32.888 -35.596)" fill="#121312"/>
              <path id="Path_39459" data-name="Path 39459" d="M35.323,77.1H28.282a1.606,1.606,0,0,1,0-3.211h7.04v.988h-7.04a.617.617,0,1,0,0,1.235h7.04V77.1Z" transform="translate(-17.784 -47.955)" fill="#121312"/>
              <path id="Path_39460" data-name="Path 39460" d="M55.571,79.529" transform="translate(-36.549 -51.615)" fill="none" stroke="#000" stroke-miterlimit="10" stroke-width="2.819"/>
              <path id="Path_39461" data-name="Path 39461" d="M56.109,74.357H50.427a.494.494,0,0,1,0-.988h4.694v-.988a1.944,1.944,0,0,0-2.1-1.729c-1.282,0-2.1.649-2.1.988a.494.494,0,1,1-.988,0c0-1.072,1.414-1.977,3.088-1.977a2.925,2.925,0,0,1,3.088,2.718v1.976Z" transform="translate(-32.888 -45.208)" fill="#121312"/>
              <path id="Path_39462" data-name="Path 39462" d="M28.481,23.119H23.43l.078-.562a2.184,2.184,0,0,0,.033-.3,2.1,2.1,0,0,0-4.2,0,1.819,1.819,0,0,0,.028.271l.084.566-.569.027H17.122l-.144-.141a2.142,2.142,0,0,0-2.932,0l-.144.141H4.766a3.462,3.462,0,0,1-3.458-3.458V3.357A3.462,3.462,0,0,1,4.766-.1H28.481A3.462,3.462,0,0,1,31.94,3.357v16.3A3.462,3.462,0,0,1,28.481,23.119Zm-3.955-.989h3.955a2.473,2.473,0,0,0,2.471-2.47V3.357A2.473,2.473,0,0,0,28.481.887H4.766A2.473,2.473,0,0,0,2.3,3.357v16.3a2.473,2.473,0,0,0,2.471,2.47h8.742a3.153,3.153,0,0,1,4.007,0h.84a3.088,3.088,0,0,1,6.171,0Z" transform="translate(-1.308 0.101)" fill="#121312"/>
              <path id="Path_39463" data-name="Path 39463" d="M38.12,66.642H34.094L33.95,66.5a3.088,3.088,0,1,1,4.315,0Zm-3.611-.988h3.2a2.077,2.077,0,0,0,.5-1.358,2.1,2.1,0,1,0-4.2,0A2.078,2.078,0,0,0,34.51,65.654Z" transform="translate(-21.903 -39.716)" fill="#121312"/>
            </g>
            <path id="Path_39464" data-name="Path 39464" d="M29.22,7.289c0,.56.4.79.882.51L35.868,4.47a.539.539,0,0,0,0-1.019L30.1.122c-.485-.28-.882-.051-.882.51Z" transform="translate(-17.297 8.014)" fill="#121312"/>
          </g>
        </g>
      </g>
    </g>
  </g>
</svg>
