<svg id="Phone" xmlns="http://www.w3.org/2000/svg" width="26" height="26" viewBox="0 0 26 26">
  <path id="Path_39416" data-name="Path 39416" d="M11.288,15.23a14.712,14.712,0,0,0,5.344,3.459l2.723-2.167a.484.484,0,0,1,.549,0l5.056,3.257a1.444,1.444,0,0,1,.238,2.3l-2.369,2.34a2.889,2.889,0,0,1-2.622.773,25.343,25.343,0,0,1-12.386-6.5,24.4,24.4,0,0,1-6.7-12.155,2.73,2.73,0,0,1,.794-2.564L4.376,1.6a1.444,1.444,0,0,1,2.253.231L10,6.824a.455.455,0,0,1,0,.542L7.778,10.03a14.264,14.264,0,0,0,3.51,5.2Z" transform="translate(-0.296 -0.324)" fill="#ff1b73"/>
  <rect id="Rectangle_1059" data-name="Rectangle 1059" width="26" height="26" fill="rgba(0,0,0,0)"/>
</svg>
