<svg id="Twitter" xmlns="http://www.w3.org/2000/svg" width="46" height="46" viewBox="0 0 46 46">
  <g id="Group_31734" data-name="Group 31734" transform="translate(0)">
    <g id="Path_15" data-name="Path 15" fill="none">
      <path d="M23,0A23,23,0,1,1,0,23,23,23,0,0,1,23,0Z" stroke="none"/>
      <path d="M 23.00000190734863 1.000003814697266 C 20.02958106994629 1.000003814697266 17.1485424041748 1.58154296875 14.43691253662109 2.728462219238281 C 11.81729125976563 3.836471557617188 9.464412689208984 5.422893524169922 7.443653106689453 7.443653106689453 C 5.422893524169922 9.464412689208984 3.836471557617188 11.81729125976563 2.728462219238281 14.43691253662109 C 1.58154296875 17.1485424041748 1.000003814697266 20.02958106994629 1.000003814697266 23.00000190734863 C 1.000003814697266 25.97042274475098 1.58154296875 28.85146141052246 2.728462219238281 31.56309127807617 C 3.836471557617188 34.18272399902344 5.422893524169922 36.53559112548828 7.443653106689453 38.55635070800781 C 9.464412689208984 40.57712173461914 11.81729125976563 42.16354370117188 14.43691253662109 43.27154159545898 C 17.1485424041748 44.41846084594727 20.02958106994629 45 23.00000190734863 45 C 25.97042274475098 45 28.85146141052246 44.41846084594727 31.56309127807617 43.27154159545898 C 34.18272399902344 42.16354370117188 36.53559112548828 40.57712173461914 38.55635070800781 38.55635070800781 C 40.57712173461914 36.53559112548828 42.16354370117188 34.18272399902344 43.27154159545898 31.56309127807617 C 44.41846084594727 28.85146141052246 45 25.97042274475098 45 23.00000190734863 C 45 20.02958106994629 44.41846084594727 17.1485424041748 43.27154159545898 14.43691253662109 C 42.16354370117188 11.81729125976563 40.57712173461914 9.464412689208984 38.55635070800781 7.443653106689453 C 36.53559112548828 5.422893524169922 34.18272399902344 3.836471557617188 31.56309127807617 2.728462219238281 C 28.85146141052246 1.58154296875 25.97042274475098 1.000003814697266 23.00000190734863 1.000003814697266 M 23.00000190734863 3.814697265625e-06 C 35.70256042480469 3.814697265625e-06 46 10.29745101928711 46 23.00000190734863 C 46 35.70256042480469 35.70256042480469 46 23.00000190734863 46 C 10.29745101928711 46 3.814697265625e-06 35.70256042480469 3.814697265625e-06 23.00000190734863 C 3.814697265625e-06 10.29745101928711 10.29745101928711 3.814697265625e-06 23.00000190734863 3.814697265625e-06 Z" stroke="none" fill="#fff"/>
    </g>
    <path id="Path_35178" data-name="Path 35178" d="M85.78,84.047a9.252,9.252,0,0,1-2.6.693,4.431,4.431,0,0,0,1.992-2.433,9.18,9.18,0,0,1-2.877,1.067,4.587,4.587,0,0,0-3.305-1.387,4.462,4.462,0,0,0-4.527,4.394,4.266,4.266,0,0,0,.117,1,12.989,12.989,0,0,1-9.333-4.592A4.269,4.269,0,0,0,64.633,85a4.358,4.358,0,0,0,2.014,3.657,4.6,4.6,0,0,1-2.052-.55v.056a4.433,4.433,0,0,0,3.633,4.31,4.681,4.681,0,0,1-1.193.154,4.564,4.564,0,0,1-.851-.079A4.516,4.516,0,0,0,70.414,95.6a9.257,9.257,0,0,1-5.625,1.881,9.521,9.521,0,0,1-1.081-.062A13.1,13.1,0,0,0,70.651,99.4,12.6,12.6,0,0,0,83.535,86.89l-.013-.569A9.039,9.039,0,0,0,85.78,84.047Z" transform="translate(-51.489 -67.614)" fill="#fff"/>
  </g>
</svg>
